<svg width="40" height="40" viewBox="0 0 40 40" fill="none" xmlns="http://www.w3.org/2000/svg">
  <defs>
    <linearGradient id="bg" x1="20" y1="2" x2="20" y2="38" gradientUnits="userSpaceOnUse">
      <stop offset="0" stop-color="#0C140E"/>
      <stop offset="1" stop-color="#010301"/>
    </linearGradient>
    <linearGradient id="rain" x1="0" y1="4" x2="0" y2="36" gradientUnits="userSpaceOnUse">
      <stop offset="0" stop-color="#D7FFD9"/>
      <stop offset="0.2" stop-color="#8CFF8A"/>
      <stop offset="1" stop-color="#0C5A21"/>
    </linearGradient>
    <filter id="glow" x="0" y="0" width="40" height="40" filterUnits="userSpaceOnUse" color-interpolation-filters="sRGB">
      <feGaussianBlur stdDeviation="1.3" result="blur"/>
      <feMerge>
        <feMergeNode in="blur"/>
        <feMergeNode in="SourceGraphic"/>
      </feMerge>
    </filter>
  </defs>

  <rect x="2" y="2" width="36" height="36" rx="7" fill="url(#bg)"/>
  <rect x="2.5" y="2.5" width="35" height="35" rx="6.5" stroke="#183B22"/>

  <g opacity="0.55" filter="url(#glow)">
    <rect x="8" y="6" width="1.6" height="20" rx="0.8" fill="url(#rain)"/>
    <rect x="12" y="4" width="1.2" height="15" rx="0.6" fill="url(#rain)"/>
    <rect x="27" y="5" width="1.6" height="18" rx="0.8" fill="url(#rain)"/>
    <rect x="31" y="7" width="1.2" height="14" rx="0.6" fill="url(#rain)"/>
  </g>

  <path
    d="M10 30V11.5H14.2L20 20.1L25.8 11.5H30V30H26.1V18.4L21.6 25H18.4L13.9 18.4V30H10Z"
    fill="#B8FFAF"
    filter="url(#glow)"
  />

  <path d="M8 33.5H32" stroke="#2A7A36" stroke-width="1.5" stroke-linecap="round"/>
</svg>
