<svg width="40" height="40" viewBox="0 0 40 40" fill="none" xmlns="http://www.w3.org/2000/svg">
  <defs>
    <linearGradient id="bg" x1="20" y1="2" x2="20" y2="38" gradientUnits="userSpaceOnUse">
      <stop offset="0" stop-color="#0A120D"/>
      <stop offset="1" stop-color="#010201"/>
    </linearGradient>
    <linearGradient id="core" x1="20" y1="7" x2="20" y2="33" gradientUnits="userSpaceOnUse">
      <stop offset="0" stop-color="#E2FFE1"/>
      <stop offset="0.3" stop-color="#8FFF86"/>
      <stop offset="1" stop-color="#0D5C22"/>
    </linearGradient>
    <filter id="glow" x="0" y="0" width="40" height="40" filterUnits="userSpaceOnUse" color-interpolation-filters="sRGB">
      <feGaussianBlur stdDeviation="1.2" result="blur"/>
      <feMerge>
        <feMergeNode in="blur"/>
        <feMergeNode in="SourceGraphic"/>
      </feMerge>
    </filter>
  </defs>

  <rect x="2" y="2" width="36" height="36" rx="8" fill="url(#bg)"/>
  <rect x="2.5" y="2.5" width="35" height="35" rx="7.5" stroke="#17351F"/>

  <g opacity="0.45" filter="url(#glow)">
    <rect x="9" y="6" width="1.2" height="11" rx="0.6" fill="#68FF77"/>
    <rect x="12.5" y="4.5" width="1" height="8" rx="0.5" fill="#9FFF92"/>
    <rect x="27" y="5.5" width="1.2" height="10" rx="0.6" fill="#68FF77"/>
    <rect x="30.5" y="7.5" width="1" height="7" rx="0.5" fill="#9FFF92"/>
    <rect x="8.5" y="24" width="1" height="9" rx="0.5" fill="#2D9B44"/>
    <rect x="31" y="24.5" width="1" height="8" rx="0.5" fill="#2D9B44"/>
  </g>

  <g filter="url(#glow)">
    <path
      d="M11 29.5V10.5H14.8L20 16.4L25.2 10.5H29V29.5H25.4V16.2L20 22.2L14.6 16.2V29.5H11Z"
      fill="#0A120D"
      stroke="url(#core)"
      stroke-width="1.8"
      stroke-linejoin="round"
    />
  </g>
</svg>
